<?xml version="1.0" encoding="UTF-8" standalone="no"?>
<svg
   xmlns:dc="http://purl.org/dc/elements/1.1/"
   xmlns:cc="http://creativecommons.org/ns#"
   xmlns:rdf="http://www.w3.org/1999/02/22-rdf-syntax-ns#"
   xmlns:svg="http://www.w3.org/2000/svg"
   xmlns="http://www.w3.org/2000/svg"
   id="svg8"
   version="1.1"
   fill="none"
   viewBox="0 0 29 32"
   height="32"
   width="29">
  <metadata
     id="metadata14">
    <rdf:RDF>
      <cc:Work
         rdf:about="">
        <dc:format>image/svg+xml</dc:format>
        <dc:type
           rdf:resource="http://purl.org/dc/dcmitype/StillImage" />
      </cc:Work>
    </rdf:RDF>
  </metadata>
  <defs
     id="defs12" />
  <path
     id="path2"
     fill="white"
     d="M14.4 0C6.45975 0 0 6.46025 0 14.4C0 14.5589 0 18.6667 0 18.6667C0 26.0187 6.45975 32 14.4 32C22.3402 32 28.8 26.0187 28.8 18.6667C28.8 18.6667 28.8 14.5589 28.8 14.4C28.8 6.46025 22.3402 0 14.4 0ZM3.2 23.4667V25.3099C2.10881 23.7579 1.38719 21.9675 1.15256 20.0421C1.67894 21.2736 2.37337 22.416 3.20481 23.4432C3.20425 23.4518 3.2 23.4587 3.2 23.4667ZM5.86669 28.0837C5.28963 27.64 4.75525 27.152 4.26669 26.6261V24.6197C4.76537 25.1141 5.30031 25.5722 5.86669 25.9904V28.0837ZM8.53331 29.6789C7.96369 29.4208 7.4165 29.1275 6.896 28.8H6.93331V26.7088C7.44588 27.0208 7.98131 27.2987 8.53331 27.5456V29.6789ZM11.2 30.5739C10.6522 30.4491 10.1189 30.2928 9.6 30.1077V27.9744C10.12 28.1589 10.6544 28.3131 11.2 28.4373V30.5739ZM13.8667 30.9211C13.3243 30.9013 12.7904 30.8523 12.2667 30.7744V28.6411C12.7915 28.7194 13.3254 28.7669 13.8667 28.7867V30.9211ZM16.5333 30.7744C16.0096 30.8523 15.4757 30.9013 14.9333 30.9211V28.7867C15.4746 28.7669 16.0085 28.7195 16.5333 28.6411V30.7744ZM19.2 30.1077C18.6811 30.2928 18.1478 30.4491 17.6 30.5739V28.4373C18.1456 28.3131 18.68 28.1589 19.2 27.9744V30.1077ZM20.2667 29.6789V27.5461C20.8187 27.2987 21.3541 27.0213 21.8667 26.7093V28.8H21.904C21.3834 29.1274 20.8362 29.4208 20.2667 29.6789ZM24.5333 26.6261C24.0447 27.152 23.5104 27.64 22.9333 28.0837V25.9904C23.4997 25.5723 24.0346 25.1147 24.5333 24.6197V26.6261ZM25.6 25.3099V23.4667C25.6 23.4581 25.5957 23.4513 25.5952 23.4433C26.4266 22.4161 27.1211 21.2736 27.6474 20.0427C27.4128 21.9674 26.6912 23.7584 25.6 25.3099ZM14.4 27.6928C7.07037 27.6928 1.10775 21.7301 1.10775 14.4C1.10775 7.06987 7.07037 1.10775 14.4 1.10775C21.7296 1.10775 27.6922 7.07094 27.6922 14.4006C27.6922 21.7302 21.7296 27.6928 14.4 27.6928Z" />
  <path
     id="path4"
     fill="white"
     d="M14.3996 3.32373C8.29183 3.32373 3.32227 8.29229 3.32227 14.4C3.32227 20.5077 8.29183 25.4768 14.3996 25.4768C20.5073 25.4768 25.4769 20.5082 25.4769 14.4C25.4769 8.29173 20.5073 3.32373 14.3996 3.32373ZM14.3996 24.3696C8.90252 24.3696 4.43052 19.897 4.43052 14.4C4.43052 8.90292 8.90252 4.43092 14.3996 4.43092C19.8966 4.43092 24.3686 8.90348 24.3686 14.4C24.3686 19.8965 19.8966 24.3696 14.3996 24.3696Z" />
  <path
     id="path6"
     fill="white"
     d="M14.9328 13.9722V9.79092C16.8357 9.87892 17.5083 10.4357 17.8485 10.8645C18.0315 11.096 18.3664 11.1349 18.5979 10.9509C18.8288 10.768 18.8672 10.4325 18.6842 10.2021C17.9487 9.27517 16.7461 8.80374 14.9333 8.72692V7.95574C14.9333 7.6608 14.6943 7.42242 14.4 7.42242C14.1056 7.42242 13.8667 7.6608 13.8667 7.95574V8.73867C11.504 8.95361 10.2501 10.409 10.2288 11.8336C10.208 13.2 11.3317 14.6245 13.8667 14.8939V19.0139C12.2336 18.9664 11.6741 18.6741 10.9157 17.8944C10.7104 17.6832 10.3723 17.6784 10.1616 17.8837C9.9504 18.0891 9.94559 18.4272 10.1509 18.6379C11.1637 19.68 12.017 20.0288 13.8661 20.081V20.8442C13.8661 21.1392 14.105 21.3775 14.3994 21.3775C14.6938 21.3775 14.9327 21.1392 14.9327 20.8442V20.0592C17.0885 19.8682 18.6879 18.7594 18.8122 17.3072C18.8619 16.728 18.7051 14.8314 14.9328 13.9722ZM13.8662 13.8133C12.0859 13.5887 11.2822 12.7024 11.295 11.8501C11.3088 10.9328 12.2 10.0037 13.8662 9.81867V13.8133ZM17.7498 17.2165C17.6827 17.9957 16.6202 18.8096 14.9328 18.9835V15.0662C17.0843 15.6085 17.8075 16.5392 17.7498 17.2165Z" />
</svg>
